<?xml version="1.0" encoding="UTF-8" standalone="no"?>
<svg
   width="24"
   height="24"
   viewBox="0 0 24 24"
   fill="currentColor"
   version="1.1"
   id="svg4"
   sodipodi:docname="search.svg"
   inkscape:version="1.1 (c68e22c387, 2021-05-23)"
   xmlns:inkscape="http://www.inkscape.org/namespaces/inkscape"
   xmlns:sodipodi="http://sodipodi.sourceforge.net/DTD/sodipodi-0.dtd"
   xmlns="http://www.w3.org/2000/svg"
   xmlns:svg="http://www.w3.org/2000/svg">
  <defs
     id="defs8" />
  <sodipodi:namedview
     id="namedview6"
     pagecolor="#ffffff"
     bordercolor="#666666"
     borderopacity="1.0"
     inkscape:pageshadow="2"
     inkscape:pageopacity="0.0"
     inkscape:pagecheckerboard="0"
     showgrid="false"
     inkscape:zoom="12.256518"
     inkscape:cx="-0.69350857"
     inkscape:cy="12.605538"
     inkscape:window-width="1920"
     inkscape:window-height="1017"
     inkscape:window-x="-8"
     inkscape:window-y="-8"
     inkscape:window-maximized="1"
     inkscape:current-layer="svg4" />
  <path
     d="M 15.25,0 C 8.1365075,-0.0035458 4.3535375,8.3948926 9.07,13.72 c 0,0 -2.7533691,2.076359 -3.9124177,3.34006 C 3.5460637,18.817086 1,22.88 1,22.88 l 1.12,1 c 0,0 3.756876,-2.977105 5.2927485,-4.7964 C 8.5153921,17.77748 10.17,14.76 10.17,14.76 14.634323,18.251982 21.209128,16.306655 23.054753,10.947803 24.900378,5.588951 20.917813,0.00759454 15.25,0.01 Z m 0,15 C 11.522075,15 8.5000029,11.977922 8.5000029,8.25 8.5000029,4.522078 11.522075,1.5 15.25,1.5 c 3.727925,0 6.749997,3.022078 6.749997,6.75 0,3.727922 -3.022072,6.75 -6.749997,6.75 z"
     id="path2"
     sodipodi:nodetypes="ccsccscsccsssss" />
  <path
     d="m 16.482056,9.7275626 c 0.352575,0.5237254 0.811284,0.9086824 1.622571,0.9086824 0.681532,0 1.116902,-0.309888 1.116902,-0.7380654 0,-0.513109 -0.447315,-0.694844 -1.197477,-0.9933552 L 17.612856,8.7443183 c -1.186921,-0.460026 -1.975423,-1.0363256 -1.975423,-2.2546358 0,-1.122265 0.93992,-1.9766043 2.408849,-1.9766043 1.045778,0 1.797604,0.3311196 2.339386,1.1980949 l -1.28083,0.7481754 c -0.282004,-0.460026 -0.586234,-0.641259 -1.058556,-0.641259 -0.481771,0 -0.787113,0.2780397 -0.787113,0.641259 0,0.4489072 0.305617,0.6306418 1.011327,0.9086815 l 0.411196,0.160252 c 1.397522,0.5452081 2.18658,1.1010283 2.18658,2.3506846 0,1.3472254 -1.163303,2.0852904 -2.725581,2.0852904 -1.52755,0 -2.514427,-0.662236 -2.997306,-1.530222 z m -5.810408,0.129667 c 0.25839,0.4170594 0.493441,0.7696624 1.05856,0.7696624 0.540394,0 0.881299,-0.192351 0.881299,-0.9402754 V 4.5985128 h 1.644798 v 5.1083238 c 0,1.5494344 -0.998546,2.2546394 -2.456081,2.2546394 -1.316947,0 -2.0796097,-0.620026 -2.4674719,-1.366812 z"
     id="path4"
     style="stroke-width:0.0265003" />
</svg>
